PathFileType	4	(X/Y/Z)	D:\TRACE\spot_10-12-23\spot_body_baseline_4-platform.trc
DataRate	CameraRate	NumFrames	NumMarkers	Units	OrigDataRate	OrigDataStartFrame	OrigNumFrames
100.00	100.00	      76	5	mm	100.00	1	      7000
Frame#	Time	Left_Front			Right_Front			Left_Aft			Right_Aft			Post			
		X1	Y1	Z1	X2	Y2	Z2	X3	Y3	Z3	X4	Y4	Z4	X5	Y5	Z5	

1	0.000	-780.64923	6.24304	-641.50201	791.52917	10.87010	-635.00360	-697.75836	5.45656	496.68661	719.47729	10.07441	582.24768	1.69678	743.81659	-959.73096	
2	0.010	-780.69458	6.28417	-641.51208	791.45947	10.92353	-635.06445	-697.74176	5.47874	496.64859	719.47772	10.07618	582.22485	1.67046	743.77142	-959.72083	
3	0.020	-780.69763	6.31997	-641.50543	791.61761	10.92935	-634.95178	-697.76990	5.49472	496.66574	719.45624	10.08778	582.21887	1.69409	743.81091	-959.70343	
4	0.030	-780.63324	6.23761	-641.51465	791.46820	10.94778	-635.09955	-697.79700	5.48004	496.63165	719.50604	10.12039	582.24652	1.69396	743.81421	-959.70367	
5	0.040	-780.67456	6.31611	-641.51489	791.42059	10.87334	-635.08978	-697.77832	5.48577	496.64511	719.44379	10.05693	582.21545	1.64336	743.82666	-959.72015	
6	0.050	-780.65344	6.29467	-641.53979	791.42548	10.89929	-635.09259	-697.78149	5.49724	496.66174	719.45013	10.07827	582.23431	1.64579	743.79901	-959.68140	
7	0.060	-780.70111	6.28163	-641.48395	791.49023	10.93967	-635.03180	-697.78906	5.45728	496.65994	719.49854	10.07768	582.22784	1.64805	743.79828	-959.69562	
8	0.070	-780.72644	6.32268	-641.55902	791.69049	10.93052	-634.89838	-697.78949	5.44369	496.63971	719.48633	10.09515	582.24457	1.72426	743.77545	-959.72662	
9	0.080	-780.68555	6.28240	-641.50610	791.42267	10.94445	-635.08215	-697.77252	5.49178	496.64905	719.47467	10.06722	582.23743	1.73439	743.78540	-959.68359	
10	0.090	-780.74243	6.35615	-641.51874	791.56299	10.93755	-634.96246	-697.76782	5.46652	496.63797	719.48730	10.07395	582.23883	1.63958	743.81042	-959.73407	
11	0.100	-780.71710	6.27934	-641.46649	791.57617	10.93325	-634.97107	-697.77380	5.48766	496.65839	719.43445	10.03337	582.25470	1.69739	743.77850	-959.72504	
12	0.110	-780.71698	6.30263	-641.48944	791.60614	10.93670	-634.95007	-697.78510	5.44346	496.65466	719.43683	10.04609	582.24854	1.72068	743.77057	-959.69659	
13	0.120	-780.66541	6.29218	-641.47894	791.64563	10.96221	-634.91718	-697.75385	5.46649	496.63437	719.48950	10.05126	582.26172	1.71477	743.79926	-959.70959	
14	0.130	-780.68793	6.32328	-641.52222	791.44531	10.98130	-635.06537	-697.74994	5.47164	496.65945	719.49176	10.09742	582.27057	1.63955	743.81549	-959.73315	
15	0.140	-780.56653	6.19992	-641.55554	791.68158	10.96144	-634.93469	-697.72534	5.45618	496.65436	719.48767	10.09446	582.26849	1.65326	743.81329	-959.73669	
16	0.150	-780.61780	6.24859	-641.53802	791.65076	10.91353	-634.94147	-697.74512	5.45818	496.68161	719.45770	10.06896	582.26160	1.71586	743.81384	-959.74280	
17	0.160	-780.72705	6.32823	-641.48846	791.58392	10.92115	-634.94928	-697.74579	5.42833	496.64648	719.43878	10.05509	582.24603	1.74356	743.78210	-959.72577	
18	0.170	-780.67395	6.25417	-641.54901	791.42487	10.95027	-635.04797	-697.78467	5.45361	496.66595	719.44183	10.08115	582.23761	1.67514	743.81097	-959.69446	
19	0.180	-780.71497	6.34974	-641.51208	791.63019	10.92110	-634.90967	-697.77673	5.43903	496.61911	719.47156	10.09377	582.24689	1.67230	743.80823	-959.67993	
20	0.190	-780.64490	6.30867	-641.55591	791.47882	10.97020	-635.04785	-697.76569	5.51544	496.64764	719.48932	10.10844	582.23187	1.64991	743.80115	-959.69086	
21	0.200	-780.71594	6.34930	-641.50677	791.63574	10.90907	-634.92084	-697.78058	5.48379	496.63971	719.47028	10.11040	582.21490	1.75739	743.81036	-959.68280	
22	0.210	-780.67108	6.34953	-641.51111	791.53436	10.96388	-634.96716	-697.74530	5.46740	496.68640	719.46136	10.07566	582.19360	1.69075	743.81055	-959.68994	
23	0.220	-780.68231	6.30522	-641.52167	791.44519	10.90336	-635.03992	-697.75098	5.49718	496.68817	719.49115	10.10899	582.21930	1.67929	743.77631	-959.70117	
24	0.230	-780.69208	6.33813	-641.55115	791.62915	10.90420	-634.87006	-697.75830	5.46416	496.66501	719.41302	10.06946	582.22681	1.64401	743.80670	-959.70807	
25	0.240	-780.71326	6.37501	-641.50830	791.57520	10.89734	-634.95685	-697.80273	5.45358	496.66382	719.49438	10.10032	582.23761	1.75276	743.79858	-959.66711	
26	0.250	-780.67114	6.31805	-641.53345	791.61121	10.91221	-634.88123	-697.76288	5.50139	496.63605	719.45081	10.07900	582.24554	1.67838	743.82843	-959.70526	
27	0.260	-780.61218	6.18265	-641.53546	791.59613	10.86259	-634.92975	-697.75769	5.48112	496.66052	719.47626	10.08260	582.21045	1.69029	743.78821	-959.69885	
28	0.270	-780.70721	6.28734	-641.51361	791.38422	10.89251	-635.05341	-697.75018	5.47019	496.68396	719.45050	10.07060	582.23846	1.66437	743.81311	-959.71210	
29	0.280	-780.62238	6.27733	-641.50781	791.41376	10.83566	-635.03455	-697.75110	5.42891	496.67526	719.45648	10.07440	582.25702	1.66976	743.79639	-959.69885	
30	0.290	-780.69879	6.29414	-641.48981	791.60522	10.83893	-634.87024	-697.69922	5.40670	496.67984	719.44867	10.04845	582.23602	1.71726	743.78448	-959.72424	
31	0.300	-780.68427	6.28444	-641.50922	791.65656	10.85712	-634.85461	-697.77856	5.45970	496.66043	719.45300	10.05823	582.23224	1.71869	743.80182	-959.70453	
32	0.310	-780.66333	6.33200	-641.52350	791.50226	10.84874	-634.97003	-697.77441	5.45755	496.65588	719.44415	10.08013	582.25159	1.65604	743.83545	-959.69867	
33	0.320	-780.68317	6.34687	-641.48865	791.64569	10.82608	-634.84961	-697.77209	5.49910	496.65472	719.47278	10.04541	582.22974	1.67743	743.83160	-959.69177	
34	0.330	-780.71320	6.34537	-641.47955	791.63391	10.83407	-634.82269	-697.80261	5.44608	496.63135	719.43829	10.06502	582.23834	1.67897	743.81482	-959.68939	
35	0.340	-780.69427	6.29597	-641.50690	791.65540	10.81455	-634.79663	-697.76898	5.42749	496.61838	719.50061	10.08817	582.23230	1.66799	743.81256	-959.72784	
36	0.350	-780.64319	6.32438	-641.52386	791.70123	10.82323	-634.76477	-697.83124	5.54813	496.67566	719.49146	10.11446	582.24451	1.71485	743.77350	-959.67206	
37	0.360	-780.62329	6.31063	-641.54541	791.69073	10.83900	-634.79437	-697.83557	5.53102	496.63458	719.50458	10.09731	582.23315	1.77630	743.80554	-959.71509	
38	0.370	-780.52863	6.17430	-641.54584	791.73792	10.86533	-634.74445	-697.72583	5.43376	496.67453	719.47815	10.09671	582.21100	1.70863	743.78314	-959.64764	
39	0.380	-780.72614	6.34928	-641.50385	791.72803	10.85367	-634.74854	-698.03314	5.76689	496.65427	719.47516	10.08261	582.21051	1.72421	743.77655	-959.62415	
40	0.390	-780.73053	6.35633	-641.50427	791.69391	10.85351	-634.76538	-697.77429	5.47440	496.64609	719.41241	10.08316	582.20178	1.65435	743.78113	-959.69415	
41	0.400	-780.52832	6.26656	-641.79358	791.57007	10.88517	-634.83398	-697.74176	5.41794	496.62683	719.47217	10.09041	582.21344	1.74035	743.77228	-959.73737	
42	0.410	-780.41901	6.21246	-641.79626	791.60004	10.86603	-634.84497	-697.71649	5.47076	496.59207	719.46387	10.10700	582.19403	1.67446	743.81647	-959.70490	
43	0.420	-780.36224	6.12303	-641.78540	791.64099	10.85906	-634.79706	-697.72876	5.46395	496.63785	719.50439	10.10276	582.22290	1.70349	743.79382	-959.73059	
44	0.430	-780.31635	6.07799	-641.80060	791.72925	10.86473	-634.78033	-697.68726	5.37768	496.67902	719.45801	10.07011	582.20691	1.65908	743.79358	-959.74719	
45	0.440	-780.46649	6.15263	-641.71246	791.72180	10.83200	-634.73492	-697.70465	5.33972	496.67242	719.46710	10.06143	582.23486	1.71675	743.82593	-959.72626	
46	0.450	-780.53802	6.20376	-641.66382	791.71753	10.85110	-634.73779	-697.68933	5.35877	496.63705	719.43170	10.04953	582.24030	1.69187	743.78790	-959.65918	
47	0.460	-780.53131	6.22341	-641.69720	791.75592	10.83452	-634.73236	-697.69385	5.39824	496.64844	719.44525	10.04626	582.24609	1.66236	743.81842	-959.71979	
48	0.470	-780.60956	6.25586	-641.60052	791.58105	10.82784	-634.85120	-697.75378	5.42448	496.66046	719.45135	10.05511	582.23175	1.67462	743.79608	-959.70496	
49	0.480	-780.64374	6.24293	-641.54474	791.67322	10.83105	-634.78009	-697.76324	5.44042	496.64099	719.41522	10.04690	582.21796	1.70133	743.79834	-959.71472	
50	0.490	-780.66846	6.29481	-641.55872	791.65912	10.83618	-634.76923	-697.67059	5.38686	496.70526	719.46460	10.06297	582.23724	1.66178	743.80194	-959.71674	
51	0.500	-780.68823	6.28667	-641.53223	791.66016	10.81303	-634.82117	-697.72113	5.38153	496.67303	719.46765	10.07858	582.26703	1.69103	743.79822	-959.70789	
52	0.510	-780.66772	6.30361	-641.46649	791.60431	10.82465	-634.82245	-697.65369	5.34595	496.67627	719.46204	10.06074	582.24652	1.65340	743.81122	-959.67633	
53	0.520	-780.65881	6.28779	-641.53479	791.66382	10.82129	-634.82819	-697.69830	5.38875	496.67410	719.46375	10.08012	582.21582	1.64909	743.82031	-959.66705	
54	0.530	-780.76416	6.38212	-641.49744	791.56982	10.84229	-634.88586	-697.73724	5.41612	496.62607	719.51355	10.07287	582.25037	1.68416	743.81494	-959.66595	
55	0.540	-780.70331	6.32864	-641.46783	791.63257	10.80851	-634.85046	-697.73041	5.42528	496.64365	719.46808	10.08191	582.22394	1.66933	743.78040	-959.69922	
56	0.550	-780.69940	6.34585	-641.46411	791.41937	10.86561	-635.02289	-697.75354	5.43373	496.61508	719.48242	10.07650	582.22986	1.68223	743.81171	-959.71576	
57	0.560	-780.73212	6.39186	-641.48517	791.55286	10.82577	-634.90515	-697.72449	5.44460	496.65689	719.43158	10.07309	582.21393	1.72122	743.79114	-959.74713	
58	0.570	-780.74634	6.36940	-641.47833	791.65649	10.79259	-634.86823	-697.72760	5.36537	496.65097	719.44653	10.07515	582.24762	1.64516	743.81525	-959.76782	
59	0.580	-780.76465	6.33560	-641.48492	791.41461	10.84465	-635.06921	-697.69714	5.39892	496.65054	719.52875	10.10402	582.25781	1.67021	743.81232	-959.63263	
60	0.590	-780.74835	6.39644	-641.46814	791.51532	10.81460	-634.98419	-697.71942	5.40833	496.64194	719.48022	10.06344	582.25726	1.68152	743.78882	-959.68616	
61	0.600	-780.69708	6.29396	-641.47797	791.42310	10.88432	-635.08337	-697.69421	5.39441	496.66165	719.46844	10.07812	582.24829	1.69444	743.80542	-959.78217	
62	0.610	-780.75848	6.36897	-641.49005	791.58099	10.84777	-634.93378	-697.75916	5.42039	496.63287	719.44739	10.09573	582.21472	1.30473	743.96729	-959.74725	
63	0.620	-780.71631	6.30478	-641.50525	791.60431	10.89308	-634.90009	-697.73383	5.41141	496.66544	719.42053	10.05273	582.24323	1.41946	743.83026	-959.72565	
64	0.630	-780.66949	6.31267	-641.49963	791.63770	10.87552	-634.90582	-697.69293	5.38074	496.63477	719.46021	10.07662	582.24030	1.64205	743.85175	-959.75916	
65	0.640	-780.70831	6.27866	-641.46277	791.55988	10.93343	-634.92120	-697.69067	5.34778	496.66599	719.47076	10.07458	582.22906	1.71428	743.84338	-959.77185	
66	0.650	-780.70020	6.29564	-641.47638	791.55371	10.90678	-634.96283	-697.71893	5.43114	496.65915	719.43964	10.08014	582.23627	1.70055	743.83551	-959.68823	
67	0.660	-780.69800	6.31011	-641.45148	791.45612	10.88876	-635.03961	-697.73132	5.44671	496.66766	719.47900	10.10170	582.28552	1.70091	743.85834	-959.71667	
68	0.670	-780.74170	6.30580	-641.49530	791.57886	10.92096	-634.91528	-697.73114	5.39631	496.65414	719.46313	10.10532	582.28394	1.70326	743.86462	-959.66724	
69	0.680	-780.73926	6.32066	-641.49213	791.57849	10.90214	-634.90948	-697.71600	5.38439	496.66223	719.44470	10.08855	582.29547	1.65690	743.86182	-959.75977	
70	0.690	-780.64789	6.23943	-641.48291	791.42944	10.93499	-635.09412	-697.69208	5.41751	496.63803	719.47455	10.07321	582.30646	1.71447	743.88959	-959.72876	
71	0.700	-780.67499	6.28720	-641.46588	791.41211	10.91754	-635.11139	-697.71191	5.41644	496.65530	719.45630	10.09950	582.24567	1.67131	743.88306	-959.74939	
72	0.710	-780.67841	6.32485	-641.48346	791.62152	10.90772	-634.90802	-697.68158	5.40509	496.67883	719.47015	10.09001	582.24390	1.68793	743.87909	-959.67010	
73	0.720	-780.65375	6.31262	-641.49805	791.45447	10.90941	-635.07477	-697.71606	5.39910	496.69119	719.49286	10.09727	582.23010	1.68366	743.88373	-959.68658	
74	0.730	-780.70020	6.31340	-641.48083	791.61102	10.91321	-634.92462	-697.71130	5.37226	496.66577	719.50439	10.11545	582.23505	1.67385	743.85822	-959.76477	
75	0.740	-780.67584	6.28672	-641.47607	791.38885	10.88778	-635.09570	-697.71820	5.42204	496.64716	719.47571	10.08473	582.23413	1.70171	743.84723	-959.71667	
76	0.750	-780.68506	6.25858	-641.45844	791.61896	10.85294	-634.95013	-697.72028	5.42455	496.64203	719.47278	10.07834	582.22375	1.72666	743.88928	-959.74451	
